<!-- Generator: Adobe Illustrator 19.1.0, SVG Export Plug-In  -->
<svg version="1.1"
	 xmlns="http://www.w3.org/2000/svg" xmlns:xlink="http://www.w3.org/1999/xlink" xmlns:a="http://ns.adobe.com/AdobeSVGViewerExtensions/3.0/"
	 x="0px" y="0px" width="404.5px" height="213.5px" viewBox="0 0 404.5 213.5" enable-background="new 0 0 404.5 213.5"
	 xml:space="preserve">
<defs>
</defs>
<g>
	<g>
		<path fill="#FFFFFA" d="M1.2,159.9c0-4.3-0.3-19.4-0.4-22.9c-0.4-7-0.7-7.6-0.7-7.6h13.2c11,0,15.9-0.7,15.9-0.7
			c-0.4,3.5-0.6,6-5.8,6c-8.6,0-13.7-1.2-13.7-1.2c0,3-0.1,10.6-0.1,17.7h11.1c3,0,4.2-0.7,4.2-0.7c-0.1,3.4-0.6,5.3-4.3,5.3
			s-11.1-0.4-11.1-0.4v7.5c0,3.9,0.2,7.8,0.3,12.2l13.2-0.4c4.7-0.1,7.8-0.6,9.6-1.6c0.1,0.8,0.1,1.4,0.1,2c0,4.6-1.6,5-6.8,5
			l-25.4-0.4C0.4,179.8,1.2,177.8,1.2,159.9z"/>
		<path fill="#FFFFFA" d="M46.6,159.9c0-6-0.1-18.3-0.4-22.9c-0.4-7-0.7-7.7-0.7-7.7s2.8,0.1,5.8,0.1h8.9c12.5,0,18.6,5.8,18.6,13
			c0,12.7-11.7,14.5-11.7,14.5v0.4c0,0,12.2,18.1,18.2,21.6v0.5c0,0-4.2,0.9-6.3,0.9c-11.4,0-16.9-21.7-23.2-23.5l-1-0.3
			c0,1.7,0.4,11.3,0.4,19.2c0,3.9-2.2,4.9-4.7,4.9c-1.5,0-3.1-0.4-4.9-0.7C45.6,179.8,46.6,177.8,46.6,159.9z M61.1,153.8
			c5.1,0,9.3-2.6,9.3-9.9c0-5.8-3.4-10.7-13-10.7h-2.2c-0.2,6-0.3,14.4-0.3,19.7C57,153.7,59,153.8,61.1,153.8z"/>
		<path fill="#FFFFFA" d="M97.5,159.9c0-6-0.1-18.3-0.4-22.9c-0.4-7-0.7-7.7-0.7-7.7s2.8,0.1,5.8,0.1h8.9c12.5,0,18.7,5.8,18.7,13
			c0,12.7-11.7,14.5-11.7,14.5v0.4c0,0,12.2,18.1,18.2,21.6v0.5c0,0-4.2,0.9-6.3,0.9c-11.4,0-16.9-21.7-23.2-23.5l-1-0.3
			c0,1.7,0.4,11.3,0.4,19.2c0,3.9-2.2,4.9-4.7,4.9c-1.5,0-3.1-0.4-4.9-0.7C96.6,179.8,97.5,177.8,97.5,159.9z M112,153.8
			c5.1,0,9.3-2.6,9.3-9.9c0-5.8-3.4-10.7-13-10.7h-2.2c-0.2,6-0.3,14.4-0.3,19.7C107.9,153.7,109.9,153.8,112,153.8z"/>
		<path fill="#FFFFFA" d="M170.4,128.3c16.6,0,25.1,11.6,25.1,23.6c0,14.8-8.9,28.9-26.1,28.9c-16.6,0-25.1-12.2-25.1-25.1
			C144.4,141.7,153.3,128.3,170.4,128.3z M170.4,176.9c10.3,0,15.8-11.7,15.8-23.3c0-10.7-5.8-21.4-16.8-21.4
			c-10.3,0-15.7,10.9-15.7,21.8C153.6,165.6,159.6,176.9,170.4,176.9z"/>
		<path fill="#FFFFFA" d="M210.7,159.9c0-6-0.1-18.3-0.4-22.9c-0.4-7-0.7-7.7-0.7-7.7s2.8,0.1,5.8,0.1h8.9c12.5,0,18.7,5.8,18.7,13
			c0,12.7-11.7,14.5-11.7,14.5v0.4c0,0,12.2,18.1,18.2,21.6v0.5c0,0-4.2,0.9-6.3,0.9c-11.4,0-16.9-21.7-23.2-23.5l-1-0.3
			c0,1.7,0.4,11.3,0.4,19.2c0,3.9-2.2,4.9-4.7,4.9c-1.5,0-3.1-0.4-4.9-0.7C209.8,179.8,210.7,177.8,210.7,159.9z M225.2,153.8
			c5.1,0,9.3-2.6,9.3-9.9c0-5.8-3.4-10.7-13-10.7h-2.2c-0.2,6-0.3,14.4-0.3,19.7C221.1,153.7,223.2,153.8,225.2,153.8z"/>
		<path fill="#FFFFFA" d="M275.9,166.9l19.4-30c1.2-0.3,2.8-0.6,4-0.6c3.2,0,5.7,1.7,5.7,4.5c0,3.7,0,15.4-0.1,23.3
			c6.2,0,8-0.9,8-0.9s0.1,2.1,0.1,2.4c0,5-3.3,4.3-8.1,4.3c0,4,0.1,7.9,0.1,12.5c0,3.9-1.4,4.9-4,4.9c-1.5,0-3.3-0.4-5.1-0.7
			c0,0,0.9-1.4,1.1-17c-1.4,0-2.7-0.1-4.5-0.1h-12.8C277,169.5,275.9,166.9,275.9,166.9z M291.8,163.7c1.8,0,3.5,0.1,5.3,0.1
			c-0.1-6,0-15-0.3-20.5h-0.4l-13.4,21l0.1,0.3C285.8,164,288.6,163.7,291.8,163.7z"/>
		<path fill="#FFFFFA" d="M323.7,158.9c0-13.5,6-23,17.1-23c11.2,0,17.1,8.9,17.1,21.8c0,13.7-6,23.2-17.1,23.2
			C329.6,180.9,323.7,172,323.7,158.9z M351,159.5c0-9.8-3.4-17.9-10.5-17.9c-5.4,0-9.8,6.3-9.8,15.5c0,10,3.4,18.1,10.4,18.1
			C346.6,175.2,351,168.9,351,159.5z"/>
		<path fill="#FFFFFA" d="M367.4,166.9l19.4-30c1.2-0.3,2.8-0.6,4-0.6c3.2,0,5.7,1.7,5.7,4.5c0,3.7,0,15.4-0.1,23.3
			c6.2,0,8-0.9,8-0.9s0.1,2.1,0.1,2.4c0,5-3.3,4.3-8.1,4.3c0,4,0.1,7.9,0.1,12.5c0,3.9-1.4,4.9-4,4.9c-1.5,0-3.3-0.4-5.1-0.7
			c0,0,0.9-1.4,1.1-17c-1.4,0-2.7-0.1-4.5-0.1h-12.8C368.5,169.5,367.4,166.9,367.4,166.9z M383.3,163.7c1.8,0,3.5,0.1,5.3,0.1
			c-0.1-6,0-15-0.3-20.5h-0.4l-13.4,21l0.1,0.3C377.3,164,380.1,163.7,383.3,163.7z"/>
	</g>
	<g>
		<g>
			<path fill="#FFFFFA" d="M22,213.2h-3.8l-5.5-10.6l0.1,3.5v7.2H9.5V196h3.8l5.5,10.6l-0.1-3.5V196H22V213.2z"/>
			<path fill="#FFFFFA" d="M28.5,205v-0.9c0-5.9,2.1-8.4,6.5-8.4c4.5,0,6.6,2.5,6.6,8.4v0.9c0,5.9-2.1,8.4-6.6,8.4
				C30.6,213.5,28.5,211,28.5,205z M35.2,210.4c2.2,0,2.8-1.9,2.8-5.3v-0.9c0-3.4-0.6-5.3-2.8-5.3H35c-2.2,0-2.8,1.9-2.8,5.3v0.9
				c0,3.4,0.6,5.3,2.8,5.3H35.2z"/>
			<path fill="#FFFFFA" d="M56.6,201.1v-0.2c0-3.1,2.1-5.1,6.1-5.1c4.2,0,6.1,1.9,6.1,5.9v0.5h-3.6c0-2.2-0.7-3.3-2.5-3.3h-0.2
				c-1.4,0-2.3,0.8-2.3,1.9v0.1c0,1.3,0.5,1.9,3,2.2c3.7,0.5,5.6,1.8,5.6,5v0.2c0,3.3-2.2,5.2-6.2,5.2c-4,0-6.2-1.8-6.2-5.9v-0.2H60
				c0,2.2,0.9,3.1,2.5,3.1h0.2c1.7,0,2.5-0.9,2.5-2v-0.1c0-1.2-0.6-1.9-3.1-2.2C58.3,205.5,56.6,204.2,56.6,201.1z"/>
			<path fill="#FFFFFA" d="M85.7,196v3.1h-6.9v3.8h5.8v3.1h-5.8v4.1h6.9v3.1H75.2V196H85.7z"/>
			<path fill="#FFFFFA" d="M111.5,196v3.1h-6.9v3.8h5.8v3.1h-5.8v4.1h6.9v3.1H101V196H111.5z"/>
			<path fill="#FFFFFA" d="M130.6,213.2h-3.8l-5.5-10.6l0.1,3.5v7.2H118V196h3.8l5.5,10.6l-0.1-3.5V196h3.4V213.2z"/>
			<path fill="#FFFFFA" d="M143.5,210.4h0.2c1.7,0,2.4-1.2,2.4-3.1h3.6v0.2c0,4.2-2.1,5.9-6.1,5.9c-4.5,0-6.4-2.5-6.4-8.4v-0.9
				c0-5.9,2-8.4,6.4-8.4c4.1,0,6.1,1.7,6.1,6v0.8h-3.6c0-2.4-0.5-3.7-2.4-3.7h-0.2c-2.3,0-2.8,1.9-2.8,5.3v0.9
				C140.7,208.5,141.2,210.4,143.5,210.4z"/>
			<path fill="#FFFFFA" d="M155.7,205v-0.9c0-5.9,2.1-8.4,6.5-8.4c4.5,0,6.6,2.5,6.6,8.4v0.9c0,5.9-2.1,8.4-6.6,8.4
				C157.8,213.5,155.7,211,155.7,205z M162.4,210.4c2.2,0,2.8-1.9,2.8-5.3v-0.9c0-3.4-0.6-5.3-2.8-5.3h-0.2c-2.2,0-2.8,1.9-2.8,5.3
				v0.9c0,3.4,0.6,5.3,2.8,5.3H162.4z"/>
			<path fill="#FFFFFA" d="M187.9,213.2h-3.8l-5.5-10.6l0.1,3.5v7.2h-3.4V196h3.8l5.5,10.6l-0.1-3.5V196h3.4V213.2z"/>
			<path fill="#FFFFFA" d="M201.4,213.2h-3.6v-14.1h-4V196h11.5v3.1h-4V213.2z"/>
			<path fill="#FFFFFA" d="M215,213.2h-3.6V196h5.6c2.8,0,6,0.7,6,5.3v0.4c0,2.8-1.2,4.1-2.7,4.8l2.7,6.7h-3.9l-2.4-6.2H215V213.2z
				 M217.2,203.9c1,0,2.2-0.4,2.2-2.3v-0.2c0-1.9-1.2-2.3-2.2-2.3H215v4.8H217.2z"/>
			<path fill="#FFFFFA" d="M228.9,205v-0.9c0-5.9,2.1-8.4,6.5-8.4c4.5,0,6.6,2.5,6.6,8.4v0.9c0,5.9-2.1,8.4-6.6,8.4
				C231,213.5,228.9,211,228.9,205z M235.6,210.4c2.2,0,2.8-1.9,2.8-5.3v-0.9c0-3.4-0.6-5.3-2.8-5.3h-0.2c-2.2,0-2.8,1.9-2.8,5.3
				v0.9c0,3.4,0.6,5.3,2.8,5.3H235.6z M238.6,192.3l-1.4,2.4h-3.4l1.2-2.4H238.6z"/>
			<path fill="#FFFFFA" d="M257.3,213.2V196h3.6v14.1h6.3v3.1H257.3z"/>
			<path fill="#FFFFFA" d="M281.4,196l4.3,17.2h-3.8l-0.8-3.7h-4.2l-0.8,3.7h-3.8l4.3-17.2H281.4z M277.6,206.4h2.8l-1.4-6.3
				L277.6,206.4z"/>
			<path fill="#FFFFFA" d="M304,213.2h-3.6V196h5.6c2.8,0,6,0.7,6,5.3v0.4c0,4.6-3.2,5.3-6,5.3H304V213.2z M306.2,203.9
				c1,0,2.2-0.4,2.2-2.3v-0.2c0-1.9-1.2-2.3-2.2-2.3H304v4.8H306.2z"/>
			<path fill="#FFFFFA" d="M326,196l4.3,17.2h-3.8l-0.8-3.7h-4.2l-0.8,3.7h-3.8l4.3-17.2H326z M326.7,192.3l-1.4,2.4h-3.4l1.2-2.4
				H326.7z M322.2,206.4h2.8l-1.4-6.3L322.2,206.4z"/>
			<path fill="#FFFFFA" d="M335.6,205v-0.9c0-5.9,2.1-8.4,6.6-8.4c4.1,0,6.2,1.7,6.2,6v0.8h-3.6c0-2.4-0.5-3.7-2.5-3.7h-0.2
				c-2.4,0-2.9,1.9-2.9,5.3v0.9c0,3.4,0.6,5.3,3.1,5.3h0.2c1,0,1.8-0.3,2.3-0.7V207h-2.3v-3.1h5.8v7.6c-1.3,1.1-3,2-6,2
				C337.8,213.5,335.6,211,335.6,205z"/>
			<path fill="#FFFFFA" d="M358.9,213.2h-3.6V196h3.6V213.2z"/>
			<path fill="#FFFFFA" d="M378.4,213.2h-3.8l-5.5-10.6l0.1,3.5v7.2h-3.4V196h3.8l5.5,10.6l-0.1-3.5V196h3.4V213.2z"/>
			<path fill="#FFFFFA" d="M393.5,196l4.3,17.2H394l-0.8-3.7H389l-0.8,3.7h-3.8l4.3-17.2H393.5z M389.7,206.4h2.8l-1.4-6.3
				L389.7,206.4z"/>
		</g>
	</g>
	<g>
		<path fill="#FFFFFA" d="M105.8,45.2l7.4,11.1l-3.2,3.2L95.9,49.2l2.6-2.6l9.8,7.6l-7-10.4l3.2-3.1l10.3,7.2l-7.5-9.9l2.6-2.6
			l10.1,14.2l-3.3,3.2L105.8,45.2z"/>
		<path fill="#FFFFFA" d="M125.8,23.8l10,14l-2.9,2.1l-4.2-5.9l-4.1,2.9l4.2,5.9l-2.9,2.1l-10-14l2.9-2.1l4,5.6l4.1-2.9l-4-5.6
			L125.8,23.8z"/>
		<path fill="#FFFFFA" d="M136.5,27.7l-0.4-0.8c-2.7-5.3-2-8.4,1.9-10.5c4-2.1,7-0.8,9.7,4.4l0.4,0.8c2.7,5.3,2,8.4-1.9,10.5
			C142.2,34.2,139.2,33,136.5,27.7z M144.9,29.4c1.9-1,1.6-3,0-6l-0.4-0.8c-1.6-3-3-4.5-5-3.4l-0.2,0.1c-1.9,1-1.6,3,0,6.1l0.4,0.8
			c1.6,3,3,4.4,5,3.4L144.9,29.4z"/>
		<path fill="#FFFFFA" d="M153.7,19.2l-0.3-0.8c-2-5.6-0.8-8.6,3.3-10.1c4.2-1.5,7,0.2,9,5.8l0.3,0.8c2,5.6,0.8,8.6-3.4,10.1
			C158.5,26.5,155.7,24.8,153.7,19.2z M161.7,22c2.1-0.7,2-2.7,0.9-6l-0.3-0.8c-1.1-3.2-2.4-4.8-4.4-4.1l-0.2,0.1
			c-2.1,0.7-2,2.8-0.9,6l0.3,0.8c1.1,3.2,2.4,4.8,4.5,4.1L161.7,22z"/>
		<path fill="#FFFFFA" d="M177.4,20.4l-3.5,0.7l-3.5-16.8l5.5-1.2c2.7-0.6,6-0.5,6.9,3.9l0.1,0.4c0.9,4.5-2,5.8-4.8,6.4l-2,0.4
			L177.4,20.4z M177.7,10.9c0.9-0.2,2.1-0.8,1.7-2.7l0-0.2c-0.4-1.9-1.7-2-2.6-1.8l-2.2,0.5l1,4.7L177.7,10.9z"/>
		<path fill="#FFFFFA" d="M188.8,6.1l0-0.2c-0.2-3.1,1.7-5.3,5.6-5.6c4.2-0.3,6.2,1.4,6.5,5.4l0,0.5l-3.6,0.3
			c-0.2-2.2-0.9-3.2-2.7-3.1l-0.2,0c-1.4,0.1-2.2,1-2.1,2.1l0,0.1c0.1,1.3,0.7,1.9,3.2,2c3.8,0.2,5.8,1.3,6,4.5l0,0.2
			c0.3,3.3-1.8,5.4-5.8,5.7c-4,0.3-6.3-1.3-6.6-5.4l0-0.2l3.6-0.3c0.2,2.2,1.1,3,2.8,2.9l0.2,0c1.6-0.1,2.4-1.1,2.3-2.2l0-0.1
			c-0.1-1.2-0.8-1.9-3.3-2C190.9,10.4,189,9.2,188.8,6.1z"/>
		<path fill="#FFFFFA" d="M214.6,17.6l-3.6-0.2l0.3-5.3L207.1,0l3.9,0.2l2.4,7.6l3.2-7.3l3.9,0.2l-5.5,11.6L214.6,17.6z"/>
		<path fill="#FFFFFA" d="M237.4,21.2l-5.1-1.3l4.3-16.6l5.1,1.3c4.9,1.3,6.5,3.9,5,9.7l-0.2,0.9C244.9,20.8,242.3,22.4,237.4,21.2z
			 M238,18.1c2.9,0.7,4.1-0.6,4.9-4l0.2-0.9c0.9-3.3,0.4-5.1-2.4-5.8l-1.4-0.4l-2.7,10.7L238,18.1z"/>
		<path fill="#FFFFFA" d="M263.3,11.8l-2.5,17.5l-3.5-1.4l0.6-3.7l-3.9-1.6l-2.1,3.1l-3.5-1.4L258.8,10L263.3,11.8z M255.8,20
			l2.6,1.1l1.1-6.4L255.8,20z"/>
		<path fill="#FFFFFA" d="M268.5,33.5l-3.1-1.7l8.1-15.1l3.1,1.7L268.5,33.5z"/>
		<path fill="#FFFFFA" d="M280.3,26.2l0.1-0.2c1.7-2.6,4.6-3,7.9-0.8c3.5,2.4,4,5,1.7,8.3l-0.3,0.4l-2.9-2c1.3-1.9,1.3-3.1-0.2-4.1
			l-0.2-0.1c-1.2-0.8-2.3-0.6-2.9,0.3l-0.1,0.1c-0.7,1-0.7,1.9,1.2,3.6c2.8,2.5,3.7,4.6,1.9,7.3l-0.1,0.2c-1.9,2.7-4.7,3.1-8.1,0.8
			c-3.3-2.3-4.1-5-1.8-8.4l0.1-0.2l2.9,2c-1.2,1.8-1,3,0.4,4l0.2,0.1c1.4,0.9,2.5,0.7,3.2-0.3l0.1-0.1c0.7-1,0.5-1.9-1.3-3.6
			C279.3,30.9,278.6,28.8,280.3,26.2z"/>
		<path fill="#FFFFFA" d="M293.3,51.3l-2.7-2.4l3.5-3.9l4.2-12.2l2.9,2.6l-2.9,7.5l7.1-3.7l2.9,2.6l-11.6,5.6L293.3,51.3z"/>
		<path fill="#FFFFFA" d="M302.7,60.9l-2.5-2.7l2.7-2.5l2.5,2.7L302.7,60.9z M315.6,49.5l-9.6,7.5l-1.7-1.8l8.3-8.9L315.6,49.5z"/>
	</g>
	<path fill="#FFFFFA" d="M210.7,62.9c1.3,0.5,2.7,0.7,4.1,0.7c1.8,0,3.6-0.4,5.3-1.2c2.6-1.2,5.3-3.8,8.3-6.8
		c3.6-3.5,7.7-7.5,12.3-9.7l2.5-1.2l-2.3-1.4c-10.8-6.6-25.1-6-31.4-3.1c-3,1.4-5.2,3.9-6.3,7s-0.9,6.4,0.5,9.4
		c0.1,0.2,0.2,0.4,0.3,0.5c-1.3,1.5-2.6,3.2-3.5,5.1c-0.4-0.9-0.8-1.8-1.4-2.8c1.2-1.8,1.7-4,1.3-6.1c-0.4-2.3-1.6-4.3-3.5-5.7
		c-3.8-2.8-13.4-5.1-21.5-2.2l-2.6,0.9l2.2,1.7c2.7,2,4.9,5.2,6.8,7.9c1.7,2.4,3.1,4.5,4.8,5.7c1.6,1.2,3.4,1.7,5.2,1.7
		c1.8,0,3.6-0.6,5.1-1.6c1.2,2.4,1.8,4.5,1.9,5.3c-11.9-5.2-19.2-1-22.6,2.1c-8,7.4-9.3,21-5.9,29.5c8.2,20.2,12.6,24.8,29.7,20.1
		c4,1.1,7.4,1.7,10.2,1.7c9.2,0,13.3-6.3,19.5-21.8c3.4-8.5,2.2-22.1-5.9-29.5c-3.3-3.1-10.5-7.2-22-2.4c0.7-2.7,2.1-5,3.8-7
		C207.1,61.1,208.8,62.2,210.7,62.9z M206,48.1c0.8-2.3,2.5-4.2,4.8-5.3c2-1,5.9-1.8,10.6-1.8c4.8,0,10.5,0.9,15.6,3.4
		c-4,2.5-7.5,5.9-10.6,8.9c-2.8,2.7-5.4,5.2-7.5,6.3c-2.2,1.1-4.8,1.2-7.1,0.4c-1.5-0.5-2.8-1.4-3.8-2.6c3.6-3.4,7.4-5.3,7.5-5.3
		l-1.3-2.7c-0.3,0.1-4.1,2-7.9,5.4C205.3,52.7,205.2,50.3,206,48.1z M188.3,59.1c-1.2-0.9-2.6-2.9-4.1-5c-1.5-2.2-3.2-4.6-5.3-6.7
		c6.9-1.5,13.8,0.8,16.2,2.5c1.2,0.9,2.1,2.3,2.3,3.8c0.2,1,0,2-0.3,2.9c-1.6-1.9-3.7-3.6-6.5-4.8l-1.2,2.8c2.6,1.1,4.4,2.8,5.8,4.6
		C193.2,60.5,190.4,60.6,188.3,59.1z M221.2,72c6.6,6,7.8,17.8,4.9,25c-8,19.8-10.9,21.7-25.5,17.6c-0.2-0.1-0.4-0.1-0.5-0.1
		s-0.4,0-0.5,0.1c-14.6,4.2-17.5,2.2-25.5-17.6c-2.9-7.2-1.7-19,4.9-25c5-4.6,12-4.7,20.3-0.5c0.6,0.3,1.3,0.3,1.8,0
		C209.2,67.3,216.2,67.5,221.2,72z"/>
	<line fill="none" stroke="#FFFFFA" stroke-width="5" stroke-miterlimit="10" x1="218" y1="81.1" x2="204.7" y2="94.4"/>
	<line fill="none" stroke="#FFFFFA" stroke-width="5" stroke-miterlimit="10" x1="218" y1="94.4" x2="204.7" y2="81.1"/>
</g>
</svg>
