<!-- Generator: Adobe Illustrator 19.1.0, SVG Export Plug-In  -->
<svg version="1.1"
	 xmlns="http://www.w3.org/2000/svg" xmlns:xlink="http://www.w3.org/1999/xlink" xmlns:a="http://ns.adobe.com/AdobeSVGViewerExtensions/3.0/"
	 x="0px" y="0px" width="456.6px" height="213.4px" viewBox="0 0 456.6 213.4" enable-background="new 0 0 456.6 213.4"
	 xml:space="preserve">
<defs>
</defs>
<g>
	<g>
		<path fill="#FFFFFA" d="M26.1,128.3c16.6,0,25.1,11.6,25.1,23.6c0,14.8-8.9,28.9-26.1,28.9C8.4,180.8,0,168.7,0,155.8
			C0,141.6,8.9,128.3,26.1,128.3z M26.1,176.9c10.3,0,15.8-11.7,15.8-23.3c0-10.7-5.8-21.4-16.8-21.4c-10.3,0-15.7,10.9-15.7,21.8
			C9.3,165.6,15.2,176.9,26.1,176.9z"/>
		<path fill="#FFFFFA" d="M66.4,159.8c0-6-0.1-18.3-0.4-22.9c-0.4-7-0.7-7.7-0.7-7.7s2.8,0.1,5.8,0.1H80c12.5,0,18.6,5.8,18.6,13
			c0,12.7-11.7,14.5-11.7,14.5v0.4c0,0,12.2,18.1,18.2,21.6v0.5c0,0-4.2,0.9-6.3,0.9c-11.4,0-16.9-21.7-23.2-23.5l-1-0.3
			c0,1.7,0.4,11.3,0.4,19.2c0,3.9-2.2,4.9-4.7,4.9c-1.5,0-3.1-0.4-4.9-0.7C65.4,179.8,66.4,177.8,66.4,159.8z M80.9,153.7
			c5.1,0,9.3-2.6,9.3-9.9c0-5.8-3.4-10.7-13-10.7H75c-0.2,6-0.3,14.4-0.3,19.7C76.8,153.6,78.8,153.7,80.9,153.7z"/>
		<path fill="#FFFFFA" d="M139.3,128.3c6.4,0,16.6,2.3,16.6,6.8c0,1.7-1.5,4.6-2.9,6.1h-0.4c-3.8-5.8-9.4-8.8-14.9-8.8
			c-8.1,0-15.7,6.6-15.7,20.3c0,11.6,6.3,23.5,18.4,23.5c2.7,0,5.3-0.3,7.8-1.1c0.2-1.8,0.4-4.5,0.4-6.7c0-5.3-0.1-11.2-1.2-12
			c0.9-0.4,2.2-0.4,3.4-0.4c3.4,0,6.3,1.1,6.3,4.9c0,3.9-0.4,8.8-0.4,12.7c0,2.2,0.1,6,0.1,6l-0.4,0.4c0,0-1.2-0.2-2.4-0.2
			c-4.5,0-11.9,1-15.2,1c-17.6,0-25.6-12.1-25.6-24.8C113.2,142.5,122.6,128.3,139.3,128.3z"/>
		<path fill="#FFFFFA" d="M165.9,179.4c0,0,2-1.5,4.7-9l15-42c0,0,7.3,0.3,9.9,8.7c2.7,9.1,9.1,28.4,12.7,36.4
			c2,4.5,2.4,5.4,3.3,5.8v0.4c0,0-2.7,0.7-5.3,0.7c-3.2,0-5.8-1.2-6.6-4.3c-0.9-3.2-2.3-7.9-4-13.2c-2.2-0.1-4.8-0.1-7.2-0.1
			c-3.7,0-7.3,0.1-10.4,0.3c-4.3,13.1-4,17.4-9.6,17.4c-1.2,0-2.6-0.7-2.6-0.7V179.4z M186.9,159.3c2.5,0,5-0.1,7.4-0.1
			c-2.6-7.6-5.4-15.8-7.7-21.7h-0.4c-3.1,8.9-5.3,16-7.1,21.7C181.5,159.2,184.2,159.3,186.9,159.3z M180.1,125.5
			c6-3.3,9.1-10.4,9.9-12.2c3.9,0.1,5.5,3.5,5.5,3.5c-1.2,4.8-9,9.4-13.2,9.4c-0.5,0-1.7-0.1-2.2-0.3V125.5z"/>
		<path fill="#FFFFFA" d="M223.3,159.8c0-4.3-0.3-19.4-0.4-22.9c-0.4-7-0.7-7.6-0.7-7.6c0.9-0.3,2.2-0.6,3.7-0.6
			c1.5,0,3,0.1,3.7,1.2c1.9,2.9,4.6,6.4,7.6,10l14,16.8c3.7,4.5,6.5,8.1,7.2,9.6l0.3-0.3c-0.3-5.7-0.2-21.8-0.6-29.2
			c-0.4-7-0.7-7.6-0.7-7.6s1.2-0.6,2.7-0.6c3.1,0,3.3,1.5,3.3,4.1c0,8.7-0.4,17.1-0.4,28.4c0,8.1,0.1,16.1,0.6,18.6
			c0,0-1.6,0.4-3.5,0.4c-1.1,0-2.4-0.5-3.4-1.9c-1.8-2.8-4.6-6.4-7.9-10.4l-14.3-17.1c-3.7-4.5-6.5-8.1-6.8-9.4l-0.3,0.3
			c0,11.2,0.6,22,0.6,33.8c0,3.9-0.1,4.9-2.7,4.9c-1.5,0-3.2-0.7-3.2-0.7S223.3,177.8,223.3,159.8z"/>
		<path fill="#FFFFFA" d="M281.6,153.3c0-6-0.1-11.7-0.4-16.3c-0.4-7-0.7-7.6-0.7-7.6c1.2-0.4,2.8-0.6,4-0.6c3.2,0,5.7,1.7,5.7,4.5
			c0,6.3-0.3,12.2-0.3,18.2c0,9.4,0,18.7,1.2,28.3c-1.8,0.3-3.3,0.7-4.8,0.7c-2.5,0-4.7-1-4.7-4.9V153.3z"/>
		<path fill="#FFFFFA" d="M331,128.3c6.6,0,16.1,2.6,16.1,6.8c0,1.6-1.5,4.3-2.9,5.8h-0.4c-3.7-5.7-9.3-8.6-14.6-8.6
			c-8,0-15.4,6.7-15.4,20.5c0,10.9,5.9,21.7,17.9,21.7c5.6,0,11.4-1.7,16.4-5.9l0.2,0.2c-1.4,6.5-9.3,12-18.5,12
			c-17.1,0-24.8-12-24.8-24.6C304.9,142.3,314.6,128.3,331,128.3z"/>
		<path fill="#FFFFFA" d="M385.3,128.3c16.6,0,25.1,11.6,25.1,23.6c0,14.8-8.9,28.9-26.1,28.9c-16.6,0-25.1-12.2-25.1-25.1
			C359.2,141.6,368.1,128.3,385.3,128.3z M385.3,176.9c10.3,0,15.8-11.7,15.8-23.3c0-10.7-5.8-21.4-16.8-21.4
			c-10.3,0-15.7,10.9-15.7,21.8C368.5,165.6,374.4,176.9,385.3,176.9z"/>
		<path fill="#FFFFFA" d="M423.3,169.6h0.5c0,0,5.7,6.7,15.3,6.7c7.1,0,9.4-3.7,9.4-7.6c0-11.4-25.9-9.9-25.9-25.6
			c0-9.5,8.9-14.8,18-14.8c3.9,0,14.3,1.4,14.3,5.5c0,1.8-1.2,4.2-2.8,5.8h-0.5c0,0-4.8-7.4-12.5-7.4c-4.9,0-8.4,3.5-8.4,8.1
			c0,11.2,25.9,8.8,25.9,25.3c0,10-9.4,15.3-18.5,15.3c-6.1,0-16.6-2.4-16.6-7C421.6,172.6,422.6,170.8,423.3,169.6z"/>
	</g>
	<g>
		<g>
			<path fill="#FFFFFA" d="M83.6,196v3.1h-6.9v3.8h5.8v3.1h-5.8v4.1h6.9v3.1H73.1V196H83.6z"/>
			<path fill="#FFFFFA" d="M89.8,201v-0.2c0-3.1,2.1-5.1,6.1-5.1c4.2,0,6.1,1.9,6.1,5.9v0.5h-3.6c0-2.2-0.7-3.3-2.5-3.3h-0.2
				c-1.4,0-2.3,0.8-2.3,1.9v0.1c0,1.3,0.5,1.9,3,2.2c3.7,0.5,5.6,1.8,5.6,5v0.2c0,3.3-2.2,5.2-6.2,5.2c-4,0-6.2-1.8-6.2-5.9v-0.2
				h3.6c0,2.2,0.9,3.1,2.5,3.1H96c1.7,0,2.5-0.9,2.5-2v-0.1c0-1.2-0.6-1.9-3.1-2.2C91.6,205.4,89.8,204.1,89.8,201z"/>
			<path fill="#FFFFFA" d="M115.1,213.1h-3.6V199h-4V196h11.5v3.1h-4V213.1z"/>
			<path fill="#FFFFFA" d="M132.2,195.9l4.3,17.2h-3.8l-0.8-3.7h-4.2l-0.8,3.7H123l4.3-17.2H132.2z M132.9,192.2l-1.4,2.4H128
				l1.2-2.4H132.9z M128.3,206.3h2.8l-1.4-6.3L128.3,206.3z"/>
			<path fill="#FFFFFA" d="M155,213.1h-3.8l-5.5-10.6l0.1,3.5v7.2h-3.4V196h3.8l5.5,10.6l-0.1-3.5V196h3.4V213.1z"/>
			<path fill="#FFFFFA" d="M170.7,213.1V196h3.6V210h6.3v3.1H170.7z"/>
			<path fill="#FFFFFA" d="M186.5,213.1V196h3.6V210h6.3v3.1H186.5z"/>
			<path fill="#FFFFFA" d="M212.9,196v3.1H206v3.8h5.8v3.1H206v4.1h6.9v3.1h-10.5V196H212.9z"/>
			<path fill="#FFFFFA" d="M232,213.1h-3.8l-5.5-10.6l0.1,3.5v7.2h-3.4V196h3.8l5.5,10.6l-0.1-3.5V196h3.4V213.1z"/>
			<path fill="#FFFFFA" d="M238.5,205v-0.9c0-5.9,2.1-8.4,6.5-8.4c4.5,0,6.6,2.5,6.6,8.4v0.9c0,5.9-2.1,8.4-6.6,8.4
				C240.5,213.4,238.5,210.9,238.5,205z M245.1,210.3c2.2,0,2.8-1.9,2.8-5.3v-0.9c0-3.4-0.6-5.3-2.8-5.3h-0.2
				c-2.2,0-2.8,1.9-2.8,5.3v0.9c0,3.4,0.6,5.3,2.8,5.3H245.1z"/>
			<path fill="#FFFFFA" d="M257.7,201v-0.2c0-3.1,2.1-5.1,6.1-5.1c4.2,0,6.1,1.9,6.1,5.9v0.5h-3.6c0-2.2-0.7-3.3-2.5-3.3h-0.2
				c-1.4,0-2.3,0.8-2.3,1.9v0.1c0,1.3,0.5,1.9,3,2.2c3.7,0.5,5.6,1.8,5.6,5v0.2c0,3.3-2.2,5.2-6.2,5.2c-4,0-6.2-1.8-6.2-5.9v-0.2
				h3.6c0,2.2,0.9,3.1,2.5,3.1h0.2c1.7,0,2.5-0.9,2.5-2v-0.1c0-1.2-0.6-1.9-3.1-2.2C259.4,205.4,257.7,204.1,257.7,201z"/>
			<path fill="#FFFFFA" d="M290.4,213.1h-5.3V196h5.3c5.1,0,7.2,2.2,7.2,8.1v0.9C297.6,210.9,295.5,213.1,290.4,213.1z M290.2,210
				c3,0,3.8-1.6,3.8-5.1v-0.9c0-3.4-0.8-5.1-3.8-5.1h-1.5v11H290.2z"/>
			<path fill="#FFFFFA" d="M314.6,196v3.1h-6.9v3.8h5.8v3.1h-5.8v4.1h6.9v3.1h-10.5V196H314.6z"/>
			<path fill="#FFFFFA" d="M332.9,213.2l-4.3-17.2h3.8l2.9,13.1l2.9-13.1h3.8l-4.3,17.2H332.9z"/>
			<path fill="#FFFFFA" d="M351.7,213.1h-3.6V196h3.6V213.1z"/>
			<path fill="#FFFFFA" d="M363.9,213.1h-5.3V196h5.3c5.1,0,7.2,2.2,7.2,8.1v0.9C371.2,210.9,369,213.1,363.9,213.1z M363.7,210
				c3,0,3.8-1.6,3.8-5.1v-0.9c0-3.4-0.8-5.1-3.8-5.1h-1.5v11H363.7z"/>
			<path fill="#FFFFFA" d="M385.7,195.9l4.3,17.2h-3.8l-0.8-3.7h-4.2l-0.8,3.7h-3.8l4.3-17.2H385.7z M381.8,206.3h2.8l-1.4-6.3
				L381.8,206.3z"/>
		</g>
	</g>
	<g>
		<g>
			<path fill="#FFFFFA" d="M221.1,114.7c-4.1-8.4-4.8-16.6-2.1-24.6c5.8-16.7,24.8-26,25.6-26.4l2,4.2c-0.2,0.1-18.1,8.8-23.2,23.7
				c-2.3,6.7-1.7,13.8,1.9,20.9L221.1,114.7z"/>
		</g>
		<g>
			<path fill="#FFFFFA" d="M217.9,95c0-0.2-2.4-16.7-16.8-22.9l1.8-4.3c16.9,7.3,19.5,25.8,19.6,26.6L217.9,95z"/>
		</g>
		<g>
			<path fill="#FFFFFA" d="M245.8,88.1c-8,0-15.7-4.5-19.4-12.2c-5.1-10.7-0.5-23.5,10.2-28.6c10.9-5.2,36.2-6.2,55.1,5.4l3.6,2.2
				l-3.8,1.9c-8.2,4-15.5,11.1-21.8,17.3c-5.4,5.3-10.1,9.8-14.7,12C252,87.4,248.9,88.1,245.8,88.1z M257.3,48.3
				c-8.2,0-15.2,1.5-18.8,3.2c-8.4,4-11.9,14-8,22.4c4,8.4,14,11.9,22.4,8c3.9-1.8,8.5-6.4,13.4-11.1c5.7-5.5,12-11.7,19.2-16
				C276.3,49.9,266.1,48.3,257.3,48.3z"/>
		</g>
		<g>
			<path fill="#FFFFFA" d="M205.1,87.5c-3.2,0-6.3-1-9.1-3c-2.8-2.1-5.4-5.8-8.3-10c-3.4-4.9-7.2-10.4-12.1-14l-3.4-2.6l4-1.5
				c14.2-5.2,31.1-1.2,37.8,3.8c6.8,5,8.2,14.5,3.3,21.2C214.3,85.4,209.7,87.5,205.1,87.5z M181.7,59.7c3.8,3.7,6.9,8.2,9.8,12.2
				c2.6,3.7,5.1,7.2,7.3,8.9c4.7,3.5,11.3,2.5,14.7-2.1c3.4-4.6,2.4-11.2-2.3-14.7C206.9,60.8,194.2,56.7,181.7,59.7z"/>
		</g>
	</g>
	<g>
		<path fill="#FFFFFA" d="M122,81l-1.8,3.3l-12,0l3.1,1.5l6.4,3.3l-1.6,3l-15.2-8l1.8-3.3l12,0.1l-3.1-1.5l-6.4-3.3l1.6-3L122,81z"
			/>
		<path fill="#FFFFFA" d="M120.6,73l-9.5-6.8l2.1-2.9l9.4,6.8c1.5,1.1,2.6,1.1,3.7-0.5c1.2-1.6,0.8-2.7-0.7-3.7l-9.4-6.8l2.1-2.9
			l9.5,6.8c3,2.2,3.8,4.6,1,8.4C126.1,75.2,123.6,75.2,120.6,73z"/>
		<path fill="#FFFFFA" d="M130.5,42.5l2.2,2.1l-4.7,5.1l2.8,2.6l4-4.3l2.2,2.1l-4,4.3l3,2.8l4.7-5.1l2.2,2.1l-7.2,7.7l-12.5-11.7
			L130.5,42.5z"/>
		<path fill="#FFFFFA" d="M139,41.4l-0.2-0.2c-2-2.4-1.6-5.3,1.4-7.8c3.3-2.7,5.9-2.4,8.4,0.7l0.3,0.4l-2.7,2.3
			c-1.4-1.7-2.6-2.1-4-0.9l-0.2,0.1c-1.1,0.9-1.2,2.1-0.5,2.9l0.1,0.1c0.8,1,1.6,1.2,3.8-0.2c3.2-2,5.5-2.2,7.5,0.2l0.1,0.2
			c2.1,2.5,1.6,5.4-1.5,8c-3.1,2.6-5.9,2.5-8.5-0.6l-0.1-0.2l2.7-2.3c1.4,1.7,2.6,1.8,3.9,0.7l0.2-0.1c1.3-1.1,1.3-2.2,0.6-3.1
			l-0.1-0.1c-0.8-0.9-1.7-1.1-3.8,0.3C143.1,43.7,141,43.8,139,41.4z"/>
		<path fill="#FFFFFA" d="M166.1,36.3l-3,1.9l-7.5-11.9l-3.3,2.1l-1.6-2.6l9.7-6.2l1.6,2.6l-3.4,2.1L166.1,36.3z"/>
		<path fill="#FFFFFA" d="M177,30.3l-3.2,1.5l-7.3-15.5l5.1-2.4c2.5-1.2,5.7-1.9,7.6,2.3l0.2,0.4c1.2,2.5,0.7,4.2-0.4,5.5l5.3,4.9
			l-3.5,1.6l-4.7-4.6l-1.7,0.8L177,30.3z M175.1,21c0.9-0.4,1.8-1.3,1-3l-0.1-0.2c-0.8-1.8-2.1-1.6-3-1.2l-2,0.9l2.1,4.4L175.1,21z"
			/>
		<path fill="#FFFFFA" d="M186.3,17.3l-0.3-0.8c-1.8-5.7-0.5-8.7,3.7-10c4.3-1.3,7,0.4,8.8,6.1l0.3,0.8c1.8,5.7,0.5,8.7-3.7,10
			C190.8,24.8,188.1,23,186.3,17.3z M194.2,20.5c2.1-0.7,2.1-2.7,1.1-5.9l-0.3-0.8c-1-3.3-2.2-4.9-4.3-4.3l-0.2,0.1
			c-2.1,0.7-2.1,2.7-1.1,6l0.3,0.8c1,3.3,2.2,4.9,4.3,4.3L194.2,20.5z"/>
		<path fill="#FFFFFA" d="M204.1,8.1l0-0.2c-0.5-3.1,1.3-5.4,5.1-6c4.2-0.7,6.3,0.8,7,4.8l0.1,0.5l-3.5,0.6c-0.4-2.2-1.2-3.1-3-2.8
			l-0.2,0c-1.4,0.2-2.1,1.2-1.9,2.2l0,0.1c0.2,1.2,0.8,1.8,3.3,1.7c3.8-0.1,5.9,0.8,6.4,4l0,0.2c0.5,3.3-1.3,5.5-5.3,6.2
			c-4,0.7-6.4-0.8-7.1-4.8l0-0.2l3.5-0.6c0.4,2.1,1.4,2.9,3,2.6l0.2,0c1.6-0.3,2.3-1.3,2.1-2.4l0-0.1c-0.2-1.2-0.9-1.8-3.5-1.7
			C206.5,12.2,204.6,11.2,204.1,8.1z"/>
		<path fill="#FFFFFA" d="M235.2,17.2l-3.6-0.1L232.1,0l5.6,0.1c2.8,0.1,5.9,0.9,5.8,5.4l0,0.4c-0.1,4.6-3.3,5.2-6.1,5.1l-2.1-0.1
			L235.2,17.2z M237.7,8.1c1,0,2.2-0.3,2.3-2.3l0-0.2c0.1-1.9-1.2-2.3-2.1-2.4l-2.2-0.1L235.5,8L237.7,8.1z"/>
		<path fill="#FFFFFA" d="M251.9,18.5l-3.5-0.6L251,1l5.6,0.9c2.8,0.4,5.8,1.6,5.1,6.1l-0.1,0.4c-0.4,2.7-1.8,3.9-3.4,4.3l1.6,7
			l-3.8-0.6l-1.4-6.4l-1.8-0.3L251.9,18.5z M255.5,9.7c1,0.1,2.2,0,2.5-1.9l0-0.2c0.3-1.9-0.9-2.5-1.8-2.6L254,4.6l-0.7,4.8
			L255.5,9.7z"/>
		<path fill="#FFFFFA" d="M266.8,12.9l0.3-0.8c1.7-5.7,4.4-7.5,8.7-6.2c4.3,1.3,5.6,4.3,3.9,10l-0.3,0.8c-1.7,5.7-4.4,7.5-8.7,6.2
			C266.4,21.6,265.1,18.6,266.8,12.9z M271.6,20c2.1,0.6,3.2-1,4.2-4.3l0.3-0.8c1-3.3,0.9-5.3-1.2-5.9l-0.2-0.1
			c-2.1-0.6-3.3,1-4.2,4.3l-0.3,0.8c-1,3.3-0.9,5.3,1.2,5.9L271.6,20z"/>
		<path fill="#FFFFFA" d="M286.7,28.6l-4.8-2.2l7.1-15.6l4.8,2.2c4.6,2.1,5.7,5,3.2,10.4l-0.4,0.8C294.2,29.6,291.4,30.7,286.7,28.6
			z M287.8,25.7c2.7,1.2,4.1,0.1,5.6-3l0.4-0.8c1.4-3.1,1.3-4.9-1.4-6.2l-1.4-0.6l-4.6,10L287.8,25.7z"/>
		<path fill="#FFFFFA" d="M300.8,29.5l6.3-9.9l3,1.9l-6.2,9.8c-1,1.5-1,2.6,0.7,3.7s2.7,0.6,3.7-0.9l6.2-9.8l3,1.9l-6.3,9.9
			c-2,3.2-4.4,4-8.3,1.5S298.8,32.7,300.8,29.5z"/>
		<path fill="#FFFFFA" d="M319.3,45.8l0.2,0.1c1.3,1.1,2.6,0.6,3.8-0.8l2.7,2.3l-0.1,0.2c-2.7,3.2-5.4,3.2-8.5,0.6
			c-3.4-2.9-3.3-6.1,0.5-10.6l0.6-0.7c3.8-4.5,7-5.1,10.4-2.3c3.1,2.6,3.6,5.3,0.8,8.5l-0.5,0.6l-2.7-2.3c1.5-1.8,2-3.2,0.6-4.4
			l-0.2-0.1c-1.7-1.5-3.4-0.4-5.6,2.2l-0.6,0.7C318.3,42.5,317.5,44.4,319.3,45.8z"/>
		<path fill="#FFFFFA" d="M330.3,60.5l-2.4-2.6l10.4-9.5l-2.7-2.9l2.3-2.1l7.8,8.5l-2.3,2.1l-2.7-2.9L330.3,60.5z"/>
		<path fill="#FFFFFA" d="M342.3,61.9l0.7-0.5c4.8-3.4,8.1-3.2,10.7,0.5c2.6,3.6,1.8,6.8-3.1,10.2l-0.7,0.5
			c-4.8,3.4-8.1,3.2-10.7-0.5C336.6,68.5,337.5,65.4,342.3,61.9z M341.8,70.5c1.3,1.8,3.2,1.2,6-0.8l0.7-0.5c2.8-2,4-3.6,2.7-5.4
			l-0.1-0.2c-1.3-1.8-3.2-1.2-6,0.8l-0.7,0.5c-2.8,2-4,3.6-2.7,5.4L341.8,70.5z"/>
		<path fill="#FFFFFA" d="M356.5,76l0.2-0.1c2.8-1.4,5.5-0.5,7.3,3c2,3.7,1.1,6.2-2.4,8.1l-0.4,0.2l-1.6-3.2c2-1,2.6-2.1,1.8-3.7
			l-0.1-0.2c-0.7-1.3-1.8-1.6-2.7-1.1l-0.1,0.1c-1.1,0.6-1.5,1.3-0.6,3.7c1.3,3.6,1,5.8-1.8,7.3l-0.2,0.1c-2.9,1.5-5.6,0.5-7.5-3.1
			c-1.9-3.6-1.3-6.3,2.4-8.2l0.2-0.1l1.6,3.2c-1.9,1-2.3,2.2-1.5,3.7l0.1,0.2c0.8,1.5,1.9,1.8,2.9,1.3l0.1-0.1
			c1.1-0.6,1.4-1.4,0.5-3.8C353.4,79.6,353.8,77.5,356.5,76z"/>
	</g>
</g>
</svg>
