<!-- Generator: Adobe Illustrator 19.1.0, SVG Export Plug-In  -->
<svg version="1.1"
	 xmlns="http://www.w3.org/2000/svg" xmlns:xlink="http://www.w3.org/1999/xlink" xmlns:a="http://ns.adobe.com/AdobeSVGViewerExtensions/3.0/"
	 x="0px" y="0px" width="471.5px" height="213.5px" viewBox="0 0 471.5 213.5" enable-background="new 0 0 471.5 213.5"
	 xml:space="preserve">
<defs>
</defs>
<g>
	<g>
		<g>
			<path fill="#FFFFFA" d="M16.6,153.3c0-6-0.1-11.7-0.4-16.3c-0.1-1-0.1-1.9-0.1-2.6c-4.6-0.1-6.3-0.1-7.5-0.1
				c-3.7,0-6.8,0.4-8.4,0.6c0,0-0.2-1.6-0.2-2.9c0-1.4,0.3-3.1,1.7-3.1c0,0,24.2,0.4,31.5,0.4c3.5,0,6.6-0.5,7.8-0.7
				c0,0,0.3,1.8,0.3,3.6c0,1.6-0.6,2.4-1.4,2.4c0,0-6.8-0.1-14.8-0.1c-0.1,5.8-0.3,11.2-0.3,16.8c0,9.4,0,18.9,1.2,28.4
				c-1.8,0.3-3.3,0.7-4.8,0.7c-2.5,0-4.7-1-4.7-4.9V153.3z"/>
			<path fill="#FFFFFA" d="M43.1,179.5c0,0,2-1.5,4.7-9l15-42c0,0,7.3,0.3,9.9,8.7c2.7,9.1,9.1,28.4,12.7,36.4
				c2,4.5,2.4,5.4,3.3,5.8v0.4c0,0-2.7,0.7-5.3,0.7c-3.2,0-5.8-1.2-6.6-4.3c-0.9-3.2-2.3-7.9-4-13.2c-2.2-0.1-4.8-0.1-7.2-0.1
				c-3.7,0-7.3,0.1-10.4,0.3c-4.3,13.1-4,17.4-9.6,17.4c-1.2,0-2.6-0.7-2.6-0.7V179.5z M64.2,159.4c2.5,0,5-0.1,7.4-0.1
				c-2.6-7.6-5.4-15.8-7.7-21.7h-0.4c-3.1,8.9-5.3,16-7.1,21.7C58.8,159.3,61.4,159.4,64.2,159.4z"/>
			<path fill="#FFFFFA" d="M100.5,159.9c0-4.3-0.3-19.4-0.4-22.9c-0.4-7-0.7-7.6-0.7-7.6c0.9-0.3,2.2-0.6,3.7-0.6
				c1.5,0,3,0.1,3.7,1.2c1.9,2.9,4.6,6.4,7.6,10l14,16.8c3.7,4.5,6.5,8.1,7.2,9.6l0.3-0.3c-0.3-5.7-0.2-21.8-0.6-29.2
				c-0.4-7-0.7-7.6-0.7-7.6s1.2-0.6,2.7-0.6c3.1,0,3.3,1.5,3.3,4.1c0,8.7-0.4,17.1-0.4,28.4c0,8.1,0.1,16.1,0.6,18.6
				c0,0-1.6,0.4-3.5,0.4c-1.1,0-2.4-0.5-3.4-1.9c-1.8-2.8-4.6-6.4-7.9-10.4l-14.3-17.1c-3.7-4.5-6.5-8.1-6.8-9.4l-0.3,0.3
				c0,11.2,0.6,22,0.6,33.8c0,3.9-0.1,4.9-2.7,4.9c-1.5,0-3.2-0.7-3.2-0.7S100.5,177.8,100.5,159.9z"/>
			<path fill="#FFFFFA" d="M179.8,159.9c0-4.3-0.3-19.4-0.4-22.9c-0.4-7-0.7-7.6-0.7-7.6h16c14.9,0,30.4,5.6,30.4,25.1
				c0,14.9-10.6,25.9-24.5,25.9c-6.3,0-9.7-0.6-21.5-0.6C179,179.8,179.8,177.8,179.8,159.9z M198.2,176.2
				c11.1,0,17.5-9.2,17.5-20.3c0-16.8-12.2-22.7-23.9-22.7c-1.2,0-2.4,0-3.5,0.1c0,0-0.2,17.4-0.2,26.3c0,4.4,0.1,8.8,0.2,13.2
				C188.4,175.8,194.4,176.2,198.2,176.2z"/>
			<path fill="#FFFFFA" d="M238.7,129.3c0,0,2.7-0.6,4-0.6c3.2,0,5.7,1.7,5.7,4.5c0,5-0.1,19.2-0.1,25.3c0,11.7,5.1,18.1,13.4,18.1
				c8.1,0,13.3-6.4,13.3-18.1c0-10.6,0-20.6-0.8-29.1c0,0,2.2-0.6,3.2-0.6c2.7,0,2.8,1.7,2.8,4.5c0,6.3-0.6,18.3-0.6,24.3
				c0,14.8-6,23.4-19.8,23.4c-11.8,0-20.3-6.6-20.3-23C239.5,131.1,238.7,130,238.7,129.3z"/>
			<path fill="#FFFFFA" d="M297.9,159.9c0-6-0.2-18.3-0.4-22.9c-0.4-7-0.7-7.6-0.7-7.6c1.2-0.4,2.1-0.6,3.2-0.6
				c3.2,0,6.4,1.7,6.4,4.5c0,8.4-0.4,15-0.4,20.5c0,9.3,0,14.4,0.1,21.4l13.2-0.4c4.7-0.1,7.8-0.6,9.6-1.6c0.1,0.8,0.1,1.4,0.1,2
				c0,4.6-1.6,5-6.8,5l-25.1-0.4C297.1,179.8,297.9,177.8,297.9,159.9z"/>
			<path fill="#FFFFFA" d="M363,128.3c6.6,0,16.1,2.6,16.1,6.8c0,1.6-1.5,4.3-2.9,5.8h-0.4c-3.7-5.7-9.3-8.6-14.6-8.6
				c-8,0-15.4,6.7-15.4,20.5c0,10.9,5.9,21.7,17.9,21.7c5.6,0,11.4-1.7,16.4-5.9l0.2,0.2c-1.4,6.5-9.3,12-18.5,12
				c-17.1,0-24.8-12-24.8-24.6C337,142.3,346.6,128.3,363,128.3z"/>
			<path fill="#FFFFFA" d="M395,159.9c0-4.3-0.3-19.4-0.4-22.9c-0.4-7-0.7-7.6-0.7-7.6h13.2c11,0,15.9-0.7,15.9-0.7
				c-0.4,3.5-0.6,6-5.8,6c-8.6,0-13.7-1.2-13.7-1.2c0,3-0.1,10.6-0.1,17.7h11.1c3,0,4.2-0.7,4.2-0.7c-0.1,3.4-0.6,5.3-4.3,5.3
				s-11.1-0.4-11.1-0.4v7.5c0,3.9,0.2,7.8,0.3,12.2l13.2-0.4c4.7-0.1,7.8-0.6,9.6-1.6c0.1,0.8,0.1,1.4,0.1,2c0,4.6-1.6,5-6.8,5
				l-25.4-0.4C394.2,179.8,395,177.8,395,159.9z"/>
			<path fill="#FFFFFA" d="M438.1,169.7h0.5c0,0,5.7,6.7,15.3,6.7c7.1,0,9.4-3.7,9.4-7.6c0-11.4-25.9-9.9-25.9-25.6
				c0-9.5,8.9-14.8,18-14.8c3.9,0,14.3,1.4,14.3,5.5c0,1.8-1.2,4.2-2.8,5.8h-0.5c0,0-4.8-7.4-12.5-7.4c-4.9,0-8.4,3.5-8.4,8.1
				c0,11.2,25.9,8.8,25.9,25.3c0,10-9.4,15.3-18.5,15.3c-6.1,0-16.6-2.4-16.6-7C436.4,172.6,437.5,170.8,438.1,169.7z"/>
		</g>
	</g>
	<g>
		<g>
			<path fill="#FFFFFA" d="M93.2,210.4h0.2c1.7,0,2.4-1.2,2.4-3.1h3.6v0.2c0,4.2-2.1,5.9-6.1,5.9c-4.5,0-6.4-2.5-6.4-8.4v-0.9
				c0-5.9,2-8.4,6.4-8.4c4.1,0,6.1,1.7,6.1,6v0.8h-3.6c0-2.4-0.5-3.7-2.4-3.7h-0.2c-2.3,0-2.8,1.9-2.8,5.3v0.9
				C90.4,208.5,90.9,210.4,93.2,210.4z"/>
			<path fill="#FFFFFA" d="M105.5,205v-0.9c0-5.9,2.1-8.4,6.5-8.4c4.5,0,6.6,2.5,6.6,8.4v0.9c0,5.9-2.1,8.4-6.6,8.4
				C107.6,213.5,105.5,211,105.5,205z M112.1,210.4c2.2,0,2.8-1.9,2.8-5.3v-0.9c0-3.4-0.6-5.3-2.8-5.3h-0.2c-2.2,0-2.8,1.9-2.8,5.3
				v0.9c0,3.4,0.6,5.3,2.8,5.3H112.1z"/>
			<path fill="#FFFFFA" d="M135.2,213.2h-3.6l-3.1-11l0.1,3.4v7.5h-3.6V196h5.3l3.1,11l3.1-11h5.3v17.2h-3.6v-7.5l0.1-3.4
				L135.2,213.2z"/>
			<path fill="#FFFFFA" d="M148.2,205v-0.9c0-5.9,2.1-8.4,6.5-8.4c4.5,0,6.6,2.5,6.6,8.4v0.9c0,5.9-2.1,8.4-6.6,8.4
				C150.3,213.5,148.2,211,148.2,205z M154.9,210.4c2.2,0,2.8-1.9,2.8-5.3v-0.9c0-3.4-0.6-5.3-2.8-5.3h-0.2c-2.2,0-2.8,1.9-2.8,5.3
				v0.9c0,3.4,0.6,5.3,2.8,5.3H154.9z"/>
			<path fill="#FFFFFA" d="M189.2,213.2h-3.8l-5.5-10.6l0.1,3.5v7.2h-3.4V196h3.8l5.5,10.6l-0.1-3.5V196h3.4V213.2z"/>
			<path fill="#FFFFFA" d="M195.9,207.7V196h3.6v11.6c0,1.8,0.6,2.8,2.6,2.8s2.6-0.9,2.6-2.8V196h3.6v11.7c0,3.7-1.5,5.7-6.2,5.7
				S195.9,211.5,195.9,207.7z"/>
			<path fill="#FFFFFA" d="M225.5,196v3.1h-6.9v3.8h5.8v3.1h-5.8v4.1h6.9v3.1H215V196H225.5z"/>
			<path fill="#FFFFFA" d="M231.7,201.1v-0.2c0-3.1,2.1-5.1,6.1-5.1c4.2,0,6.1,1.9,6.1,5.9v0.5h-3.6c0-2.2-0.7-3.3-2.5-3.3h-0.2
				c-1.4,0-2.3,0.8-2.3,1.9v0.1c0,1.3,0.5,1.9,3,2.2c3.7,0.5,5.6,1.8,5.6,5v0.2c0,3.3-2.2,5.2-6.2,5.2c-4,0-6.2-1.8-6.2-5.9v-0.2
				h3.6c0,2.2,0.9,3.1,2.5,3.1h0.2c1.7,0,2.5-0.9,2.5-2v-0.1c0-1.2-0.6-1.9-3.1-2.2C233.4,205.5,231.7,204.2,231.7,201.1z"/>
			<path fill="#FFFFFA" d="M257,213.2h-3.6v-14.1h-4V196h11.5v3.1h-4V213.2z"/>
			<path fill="#FFFFFA" d="M270.5,213.2h-3.6V196h5.6c2.8,0,6,0.7,6,5.3v0.4c0,2.8-1.2,4.1-2.7,4.8l2.7,6.7h-3.9l-2.4-6.2h-1.8
				V213.2z M272.7,203.9c1,0,2.2-0.4,2.2-2.3v-0.2c0-1.9-1.2-2.3-2.2-2.3h-2.2v4.8H272.7z"/>
			<path fill="#FFFFFA" d="M293.1,196l4.3,17.2h-3.8l-0.8-3.7h-4.2l-0.8,3.7h-3.8l4.3-17.2H293.1z M289.2,206.4h2.8l-1.4-6.3
				L289.2,206.4z"/>
			<path fill="#FFFFFA" d="M322.5,196v3.1h-6.8v3.8h5.7v3.1h-5.7v7.2h-3.6V196H322.5z"/>
			<path fill="#FFFFFA" d="M332.2,213.2h-3.6V196h5.6c2.8,0,6,0.7,6,5.3v0.4c0,2.8-1.2,4.1-2.7,4.8l2.7,6.7h-3.9L334,207h-1.8V213.2
				z M334.4,203.9c1,0,2.2-0.4,2.2-2.3v-0.2c0-1.9-1.2-2.3-2.2-2.3h-2.2v4.8H334.4z"/>
			<path fill="#FFFFFA" d="M346.6,207.7V196h3.6v11.6c0,1.8,0.6,2.8,2.6,2.8s2.6-0.9,2.6-2.8V196h3.6v11.7c0,3.7-1.5,5.7-6.2,5.7
				C348.1,213.5,346.6,211.5,346.6,207.7z"/>
			<path fill="#FFFFFA" d="M372.4,213.2h-3.6v-14.1h-4V196h11.5v3.1h-4V213.2z"/>
			<path fill="#FFFFFA" d="M389.5,196l4.3,17.2H390l-0.8-3.7h-4.2l-0.8,3.7h-3.8l4.3-17.2H389.5z M385.6,206.4h2.8l-1.4-6.3
				L385.6,206.4z"/>
		</g>
	</g>
	<g>
		<path fill="#FFFFFA" d="M196.3,12.8l-0.1-0.2c-0.9-3,0.6-5.5,4.3-6.6c4-1.2,6.4,0.1,7.5,3.9l0.1,0.4l-3.4,1
			c-0.6-2.2-1.6-2.9-3.3-2.4L201.3,9c-1.4,0.4-1.9,1.4-1.6,2.5l0,0.1c0.4,1.2,1,1.7,3.5,1.3c3.7-0.6,5.9,0.1,6.8,3.2l0.1,0.2
			c0.9,3.2-0.6,5.6-4.5,6.8c-3.9,1.2-6.4,0-7.6-3.9l-0.1-0.2l3.4-1c0.6,2.1,1.7,2.7,3.3,2.2l0.2-0.1c1.6-0.5,2.1-1.5,1.8-2.6l0-0.1
			c-0.4-1.2-1.2-1.7-3.6-1.3C199.3,16.6,197.2,15.8,196.3,12.8z"/>
		<path fill="#FFFFFA" d="M215,11.8l-0.1-0.9c-0.9-5.9,0.8-8.6,5.2-9.3c4.4-0.7,6.9,1.5,7.8,7.3l0.1,0.9c0.9,5.9-0.8,8.6-5.2,9.3
			C218.3,19.8,215.9,17.7,215,11.8z M222.4,16c2.2-0.3,2.5-2.3,2-5.7l-0.1-0.9c-0.5-3.4-1.4-5.2-3.6-4.9l-0.2,0
			c-2.2,0.3-2.5,2.3-2,5.7l0.1,0.9c0.5,3.4,1.5,5.2,3.6,4.8L222.4,16z"/>
		<path fill="#FFFFFA" d="M244.3,17.3l-3.6-0.1l-2.9-11l0.1,3.4l-0.1,7.5l-3.6-0.1L234.5,0l5.3,0.1l2.9,11l3.2-10.9l5.3,0.1
			l-0.3,17.2l-3.6-0.1l0.1-7.5l0.1-3.4L244.3,17.3z"/>
		<path fill="#FFFFFA" d="M257.4,9.8l0.1-0.9c0.9-5.9,3.4-8,7.8-7.3c4.4,0.7,6.1,3.5,5.2,9.3l-0.1,0.9c-0.9,5.9-3.4,8-7.8,7.3
			C258.2,18.4,256.5,15.7,257.4,9.8z M263.2,16.1c2.2,0.3,3.1-1.5,3.6-4.9l0.1-0.9c0.5-3.4,0.2-5.4-2-5.7l-0.2,0
			c-2.2-0.3-3.1,1.5-3.6,4.8l-0.1,0.9c-0.5,3.4-0.2,5.4,2,5.7L263.2,16.1z"/>
		<path fill="#FFFFFA" d="M277.4,9.4l0.1-0.2c0.9-3,3.5-4.3,7.3-3.2c4,1.2,5.3,3.5,4.1,7.4l-0.1,0.4l-3.4-1c0.6-2.1,0.3-3.3-1.4-3.9
			l-0.2-0.1c-1.4-0.4-2.4,0.1-2.7,1.2l0,0.1c-0.4,1.2-0.1,2,2.2,3c3.4,1.6,4.9,3.3,4,6.4l-0.1,0.2c-0.9,3.2-3.6,4.4-7.4,3.2
			c-3.9-1.2-5.4-3.5-4.2-7.5l0.1-0.2l3.4,1c-0.6,2.1,0,3.2,1.5,3.7l0.2,0.1c1.6,0.5,2.6-0.1,2.9-1.2l0-0.1c0.4-1.2-0.1-2-2.3-3
			C277.8,14.1,276.5,12.3,277.4,9.4z"/>
	</g>
	<path fill="#FFFFFA" d="M247.5,56.7c1.3,0.5,2.7,0.7,4.1,0.7c1.8,0,3.6-0.4,5.3-1.2c2.6-1.2,5.3-3.8,8.3-6.8
		c3.6-3.5,7.7-7.5,12.3-9.7l2.5-1.2l-2.3-1.4c-10.8-6.6-25.1-6-31.4-3.1c-3,1.4-5.2,3.9-6.3,7s-0.9,6.4,0.5,9.4
		c0.1,0.2,0.2,0.4,0.3,0.5c-1.3,1.5-2.6,3.2-3.5,5.1c-0.4-0.9-0.8-1.8-1.4-2.8c1.2-1.8,1.7-4,1.3-6.1c-0.4-2.3-1.6-4.3-3.5-5.7
		c-3.8-2.8-13.4-5.1-21.5-2.2l-2.6,0.9l2.2,1.7c2.7,2,4.9,5.2,6.8,7.9c1.7,2.4,3.1,4.5,4.8,5.7c1.6,1.2,3.4,1.7,5.2,1.7
		c1.8,0,3.6-0.6,5.1-1.6c1.2,2.4,1.8,4.5,1.9,5.3c-11.9-5.2-19.2-1-22.6,2.1c-8,7.4-9.3,21-5.9,29.5c8.2,20.2,12.6,24.8,29.7,20.1
		c4,1.1,7.4,1.7,10.2,1.7c9.2,0,13.3-6.3,19.5-21.8c3.4-8.5,2.2-22.1-5.9-29.5c-3.3-3.1-10.5-7.2-22-2.4c0.7-2.7,2.1-5,3.8-7
		C243.9,54.9,245.6,56.1,247.5,56.7z M242.8,42c0.8-2.3,2.5-4.2,4.8-5.3c2-1,5.9-1.8,10.6-1.8c4.8,0,10.5,0.9,15.6,3.4
		c-4,2.5-7.5,5.9-10.6,8.9c-2.8,2.7-5.4,5.2-7.5,6.3c-2.2,1.1-4.8,1.2-7.1,0.4c-1.5-0.5-2.8-1.4-3.8-2.6c3.6-3.4,7.4-5.3,7.5-5.3
		l-1.3-2.7c-0.3,0.1-4.1,2-7.9,5.4C242.1,46.6,242,44.2,242.8,42z M225.1,53c-1.2-0.9-2.6-2.9-4.1-5c-1.5-2.2-3.2-4.6-5.3-6.7
		c6.9-1.5,13.8,0.8,16.2,2.5c1.2,0.9,2.1,2.3,2.3,3.8c0.2,1,0,2-0.3,2.9c-1.6-1.9-3.7-3.6-6.5-4.8l-1.2,2.8c2.6,1.1,4.4,2.8,5.8,4.6
		C230.1,54.4,227.2,54.5,225.1,53z M258,65.9c6.6,6,7.8,17.8,4.9,25c-8,19.8-10.9,21.7-25.5,17.6c-0.2-0.1-0.4-0.1-0.5-0.1
		s-0.4,0-0.5,0.1c-14.6,4.2-17.5,2.2-25.5-17.6c-2.9-7.2-1.7-19,4.9-25c5-4.6,12-4.7,20.3-0.5c0.6,0.3,1.3,0.3,1.8,0
		C246.1,61.2,253.1,61.3,258,65.9z"/>
</g>
</svg>
