<!-- Generator: Adobe Illustrator 19.1.0, SVG Export Plug-In  -->
<svg version="1.1"
	 xmlns="http://www.w3.org/2000/svg" xmlns:xlink="http://www.w3.org/1999/xlink" xmlns:a="http://ns.adobe.com/AdobeSVGViewerExtensions/3.0/"
	 x="0px" y="0px" width="28px" height="28px" viewBox="0 0 28 28" enable-background="new 0 0 28 28" xml:space="preserve">
<defs>
</defs>
<g>
	<g>
		<g>
			<path fill="#FFFFF8" d="M11.3,16.7h-2c-4,0-7.4,0.1-9.1,0.3c0,0-0.2-1.3-0.2-2.7C0,12.8,0.3,11,1.8,11c0,0,4.4,0.4,9.5,0.4h5.3
				h2.5c3.8,0,7.2-0.2,8.5-0.4c0,0,0.3,1.6,0.3,3.5c0,1.3-0.2,2.5-1.1,2.5c0,0-4.7-0.2-10.2-0.3H11.3z"/>
		</g>
		<g>
			<path fill="#FFFFF8" d="M11.3,11.3v-2c0-4-0.1-7.4-0.3-9.1c0,0,1.3-0.2,2.7-0.2C15.2,0,17,0.3,17,1.8c0,0-0.4,4.4-0.4,9.5v5.3
				v2.5c0,3.8,0.2,7.2,0.4,8.5c0,0-1.6,0.3-3.5,0.3c-1.3,0-2.5-0.2-2.5-1.1c0,0,0.2-4.7,0.3-10.2V11.3z"/>
		</g>
	</g>
</g>
</svg>