<!-- Generator: Adobe Illustrator 19.1.0, SVG Export Plug-In  -->
<svg version="1.1"
	 xmlns="http://www.w3.org/2000/svg" xmlns:xlink="http://www.w3.org/1999/xlink" xmlns:a="http://ns.adobe.com/AdobeSVGViewerExtensions/3.0/"
	 x="0px" y="0px" width="16px" height="12.6px" viewBox="0 0 16 12.6" enable-background="new 0 0 16 12.6" xml:space="preserve">
<defs>
</defs>
<path d="M16,1.1c0,1.6-2.3,4.3-4,5.1v0.2c1.8,0.9,4,3.4,4,5.1c0,0.6-0.2,1.1-0.2,1.1h-0.2c-2.1-3.1-6.6-5-7.6-5.5
	c0,0,0-0.5,0-0.9c0-1.9,5-2,7.6-6.3h0.2C15.8,0,16,0.5,16,1.1z M8.7,1.1c0,1.6-2.3,4.3-4,5.1v0.2c1.8,0.9,4,3.4,4,5.1
	c0,0.6-0.2,1.1-0.2,1.1H8.3C6,9.4,1.2,7.3,0,6.9c0,0,0-0.2,0-0.3c0-2.1,5.5-2,8.3-6.6h0.2C8.5,0,8.7,0.5,8.7,1.1z"/>
</svg>
