<!-- Generator: Adobe Illustrator 19.1.0, SVG Export Plug-In  -->
<svg version="1.1"
	 xmlns="http://www.w3.org/2000/svg" xmlns:xlink="http://www.w3.org/1999/xlink" xmlns:a="http://ns.adobe.com/AdobeSVGViewerExtensions/3.0/"
	 x="0px" y="0px" width="16px" height="12.6px" viewBox="0 0 16 12.6" enable-background="new 0 0 16 12.6" xml:space="preserve">
<defs>
</defs>
<path d="M0,11.5c0-1.6,2.3-4.3,4-5.1V6.2C2.3,5.4,0,2.8,0,1.1C0,0.5,0.2,0,0.2,0h0.2c2.1,3.1,6.6,5,7.6,5.5
	c0,0,0,0.5,0,0.9c0,1.9-5,2-7.6,6.3H0.2C0.2,12.6,0,12.1,0,11.5z M7.3,11.5c0-1.6,2.3-4.3,4-5.1V6.2c-1.8-0.9-4-3.4-4-5.1
	C7.3,0.5,7.5,0,7.5,0h0.2C10,3.2,14.8,5.3,16,5.7c0,0,0,0.2,0,0.3c0,2.1-5.5,2-8.3,6.6H7.5C7.5,12.6,7.3,12.1,7.3,11.5z"/>
</svg>
