<svg style="display: none;"><symbol viewBox="0 0 8.2 12" id="shape-flex-next"><title>flex-next</title>  <path d="M8.2,6.6C7.1,7,2.5,9,0.4,12H0.2c0,0-0.2-0.5-0.2-1.1c0-1.6,2.1-4,3.8-4.8V5.9C2.1,5.2,0,2.6,0,1.1
	C0,0.5,0.2,0,0.2,0h0.2C3,4.3,8.2,4.3,8.2,6.3C8.2,6.4,8.2,6.6,8.2,6.6z"/> </symbol><symbol viewBox="0 0 8.2 12" id="shape-flex-prev"><title>flex-prev</title>  <path d="M0,5.4C1.1,5,5.7,3,7.9,0h0.2c0,0,0.2,0.5,0.2,1.1c0,1.6-2.1,4-3.8,4.8v0.2c1.7,0.8,3.8,3.3,3.8,4.9
	c0,0.6-0.2,1.1-0.2,1.1H7.9C5.2,7.7,0,7.7,0,5.7C0,5.6,0,5.4,0,5.4z"/> </symbol><symbol viewBox="0 0 10.8 7.4" id="shape-icon-accordeon"><title>icon-accordeon</title>  <path d="M1,0c1.4,0,3.7,1.9,4.4,3.5h0.1C6.2,1.9,8.5,0,9.9,0c0.5,0,1,0.1,1,0.1v0.2C8.1,2.3,6.3,6.4,5.9,7.4
	c0,0-0.2,0-0.3,0C3.9,7.4,3.9,2.7,0,0.3V0.1C0,0.1,0.4,0,1,0z"/> </symbol><symbol viewBox="0 0 7.8 16" id="shape-icon-facebook"><title>icon-facebook</title>  <path d="M2,16V8.5H0V5.8h2c0,0,0-1.1,0-2.3C2,1.7,3.2,0,5.9,0C7,0,7.8,0.1,7.8,0.1L7.7,2.6
	c0,0-0.8,0-1.7,0c-1,0-1.1,0.4-1.1,1.2c0,0.6,0-1.3,0,2h2.9L7.6,8.5H4.8V16H2z"/> </symbol><symbol viewBox="0 0 16 12.3" id="shape-icon-gplus"><title>icon-gplus</title>  <g> <path d="M12.3,5.5H6.5v1.9H10C9.5,9,8,10.2,6.1,10.2C3.9,10.2,2,8.4,2,6.1C2,3.9,3.9,2,6.1,2C7.3,2,8.3,2.5,9,3.3
		l1.4-1.5C9.3,0.7,7.8,0,6.1,0C2.7,0,0,2.7,0,6.1s2.7,6.1,6.1,6.1c3,0,5.6-2.1,6.1-4.9L12.3,5.5L12.3,5.5L12.3,5.5z"/> <polygon points="16,5.5 14.8,5.5 14.8,4.3 13.8,4.3 13.8,5.5 12.7,5.5 12.7,6.5 13.8,6.5 13.8,7.6 14.8,7.6 
		14.8,6.5 16,6.5 	"/> </g> </symbol><symbol viewBox="0 0 16 16" id="shape-icon-instagram"><title>icon-instagram</title>  <g> <path d="M8,1.4c2.1,0,2.4,0,3.2,0c0.8,0,1.2,0.2,1.5,0.3c0.4,0.1,0.6,0.3,0.9,0.6c0.3,0.3,0.5,0.5,0.6,0.9
		c0.1,0.3,0.2,0.7,0.3,1.5c0,0.8,0,1.1,0,3.2s0,2.4,0,3.2c0,0.8-0.2,1.2-0.3,1.5c-0.1,0.4-0.3,0.6-0.6,0.9c-0.3,0.3-0.5,0.5-0.9,0.6
		c-0.3,0.1-0.7,0.2-1.5,0.3c-0.8,0-1.1,0-3.2,0s-2.4,0-3.2,0c-0.8,0-1.2-0.2-1.5-0.3c-0.4-0.1-0.6-0.3-0.9-0.6
		c-0.3-0.3-0.5-0.5-0.6-0.9c-0.1-0.3-0.2-0.7-0.3-1.5c0-0.8,0-1.1,0-3.2s0-2.4,0-3.2c0-0.8,0.2-1.2,0.3-1.5c0.1-0.4,0.3-0.6,0.6-0.9
		c0.3-0.3,0.5-0.5,0.9-0.6C3.6,1.7,4,1.5,4.8,1.5C5.6,1.4,5.9,1.4,8,1.4 M8,0C5.8,0,5.6,0,4.7,0c-0.9,0-1.4,0.2-1.9,0.4
		c-0.5,0.2-1,0.5-1.4,0.9C0.9,1.8,0.6,2.2,0.4,2.8C0.2,3.3,0.1,3.9,0,4.7C0,5.6,0,5.8,0,8c0,2.2,0,2.4,0,3.3c0,0.9,0.2,1.4,0.4,1.9
		c0.2,0.5,0.5,1,0.9,1.4c0.4,0.4,0.9,0.7,1.4,0.9c0.5,0.2,1.1,0.3,1.9,0.4c0.9,0,1.1,0,3.3,0s2.4,0,3.3,0c0.9,0,1.4-0.2,1.9-0.4
		c0.5-0.2,1-0.5,1.4-0.9c0.4-0.4,0.7-0.9,0.9-1.4c0.2-0.5,0.3-1.1,0.4-1.9c0-0.9,0-1.1,0-3.3s0-2.4,0-3.3c0-0.9-0.2-1.4-0.4-1.9
		c-0.2-0.5-0.5-1-0.9-1.4c-0.4-0.4-0.9-0.7-1.4-0.9c-0.5-0.2-1.1-0.3-1.9-0.4C10.4,0,10.2,0,8,0L8,0z"/> <path d="M8,3.9C5.7,3.9,3.9,5.7,3.9,8s1.8,4.1,4.1,4.1s4.1-1.8,4.1-4.1S10.3,3.9,8,3.9z M8,10.7
		c-1.5,0-2.7-1.2-2.7-2.7S6.5,5.3,8,5.3s2.7,1.2,2.7,2.7S9.5,10.7,8,10.7z"/> <circle cx="12.3" cy="3.7" r="1"/> </g> </symbol><symbol viewBox="0 0 14 13.4" id="shape-icon-linkedin"><title>icon-linkedin</title>  <path d="M3.2,13.4v-9h-3v9H3.2L3.2,13.4z M1.7,3.1c1,0,1.7-0.7,1.7-1.6
	C3.4,0.7,2.7,0,1.7,0C0.7,0,0,0.7,0,1.6C0,2.4,0.7,3.1,1.7,3.1L1.7,3.1L1.7,3.1z M4.8,13.4c0,0,0-8.2,0-9h3v1.3h0
	C8.2,5,8.9,4.1,10.5,4.1c2,0,3.5,1.3,3.5,4.1v5.2h-3V8.6c0-1.2-0.4-2-1.5-2c-0.8,0-1.3,0.6-1.5,1.1C7.9,7.8,7.8,8.1,7.8,8.3v5H4.8
	L4.8,13.4z"/> </symbol><symbol viewBox="0 0 16 13.3" id="shape-icon-mail"><title>icon-mail</title>  <path d="M14.5,0H1.5C0.7,0,0,0.7,0,1.5v10.2c0,0.9,0.7,1.5,1.5,1.5h12.9c0.9,0,1.5-0.7,1.5-1.5V1.5
	C16,0.7,15.3,0,14.5,0z M13.1,2L8,7.1L2.9,2H13.1z M2,11.3V3l5.5,5.6C7.7,8.7,7.8,8.8,8,8.8s0.3-0.1,0.5-0.2L14,3v8.4H2z"/> </symbol><symbol viewBox="0 0 12.1 16.7" id="shape-icon-place"><title>icon-place</title>  <g> <g> <path d="M6.1,0C2.7,0,0,2.7,0,6.1c0,2.9,4.6,9,5.8,10.5
			c0.1,0.2,0.4,0.2,0.5,0c1.2-1.5,5.8-7.6,5.8-10.5C12.1,2.7,9.4,0,6.1,0z M6.1,8.4c-1.8,0-3.2-1.4-3.2-3.2S4.3,2,6.1,2
			s3.2,1.4,3.2,3.2S7.8,8.4,6.1,8.4z"/> </g> </g> </symbol><symbol viewBox="0 0 28 28" id="shape-icon-plus"><title>icon-plus</title>  <g> <g> <g> <path fill="#FFFFF8" d="M11.3,16.7h-2c-4,0-7.4,0.1-9.1,0.3c0,0-0.2-1.3-0.2-2.7C0,12.8,0.3,11,1.8,11c0,0,4.4,0.4,9.5,0.4h5.3
				h2.5c3.8,0,7.2-0.2,8.5-0.4c0,0,0.3,1.6,0.3,3.5c0,1.3-0.2,2.5-1.1,2.5c0,0-4.7-0.2-10.2-0.3H11.3z"/> </g> <g> <path fill="#FFFFF8" d="M11.3,11.3v-2c0-4-0.1-7.4-0.3-9.1c0,0,1.3-0.2,2.7-0.2C15.2,0,17,0.3,17,1.8c0,0-0.4,4.4-0.4,9.5v5.3
				v2.5c0,3.8,0.2,7.2,0.4,8.5c0,0-1.6,0.3-3.5,0.3c-1.3,0-2.5-0.2-2.5-1.1c0,0,0.2-4.7,0.3-10.2V11.3z"/> </g> </g> </g> </symbol><symbol viewBox="0 0 16 13" id="shape-icon-twitter"><title>icon-twitter</title>  <path d="M14.4,3.2c0,0.1,0,0.3,0,0.4C14.4,8,11.1,13,5,13c-1.9,0-3.6-0.5-5-1.5c0.3,0,0.5,0,0.8,0
	c1.5,0,3-0.5,4.1-1.4c-1.4,0-2.6-1-3.1-2.3c0.2,0,0.4,0.1,0.6,0.1c0.3,0,0.6,0,0.9-0.1C1.8,7.5,0.6,6.2,0.6,4.6c0,0,0,0,0,0
	C1.1,4.8,1.6,5,2.1,5C1.2,4.4,0.7,3.4,0.7,2.3c0-0.6,0.2-1.2,0.4-1.7c1.6,2,4,3.3,6.8,3.4C7.8,3.8,7.8,3.5,7.8,3.3
	C7.8,1.5,9.3,0,11.1,0c0.9,0,1.8,0.4,2.4,1c0.7-0.1,1.5-0.4,2.1-0.8c-0.2,0.8-0.8,1.4-1.4,1.8C14.8,2,15.4,1.8,16,1.5
	C15.6,2.2,15,2.8,14.4,3.2z"/> </symbol><symbol viewBox="0 0 16 12.6" id="shape-related-next"><title>related-next</title>  <path d="M0,11.5c0-1.6,2.3-4.3,4-5.1V6.2C2.3,5.4,0,2.8,0,1.1C0,0.5,0.2,0,0.2,0h0.2c2.1,3.1,6.6,5,7.6,5.5
	c0,0,0,0.5,0,0.9c0,1.9-5,2-7.6,6.3H0.2C0.2,12.6,0,12.1,0,11.5z M7.3,11.5c0-1.6,2.3-4.3,4-5.1V6.2c-1.8-0.9-4-3.4-4-5.1
	C7.3,0.5,7.5,0,7.5,0h0.2C10,3.2,14.8,5.3,16,5.7c0,0,0,0.2,0,0.3c0,2.1-5.5,2-8.3,6.6H7.5C7.5,12.6,7.3,12.1,7.3,11.5z"/> </symbol><symbol viewBox="0 0 16 12.6" id="shape-related-prev"><title>related-prev</title>  <path d="M16,1.1c0,1.6-2.3,4.3-4,5.1v0.2c1.8,0.9,4,3.4,4,5.1c0,0.6-0.2,1.1-0.2,1.1h-0.2c-2.1-3.1-6.6-5-7.6-5.5
	c0,0,0-0.5,0-0.9c0-1.9,5-2,7.6-6.3h0.2C15.8,0,16,0.5,16,1.1z M8.7,1.1c0,1.6-2.3,4.3-4,5.1v0.2c1.8,0.9,4,3.4,4,5.1
	c0,0.6-0.2,1.1-0.2,1.1H8.3C6,9.4,1.2,7.3,0,6.9c0,0,0-0.2,0-0.3c0-2.1,5.5-2,8.3-6.6h0.2C8.5,0,8.7,0.5,8.7,1.1z"/> </symbol></svg>