<!-- Generator: Adobe Illustrator 19.1.0, SVG Export Plug-In  -->
<svg version="1.1"
	 xmlns="http://www.w3.org/2000/svg" xmlns:xlink="http://www.w3.org/1999/xlink" xmlns:a="http://ns.adobe.com/AdobeSVGViewerExtensions/3.0/"
	 x="0px" y="0px" width="55px" height="56.7px" viewBox="0 0 55 56.7" enable-background="new 0 0 55 56.7" xml:space="preserve">
<defs>
</defs>
<g>
	<path fill="#BADC00" d="M50,12.5l-1.7,1.2c3.1,4.3,4.7,9.4,4.7,14.7c0,14-11.4,25.4-25.4,25.4c-4.7,0-9.1-1.2-13.1-3.6
		c1.4-0.2,2.7-0.8,3.2-1.5c0.3-0.5,0.5-0.9,0.5-0.9L18,47.7c-4.3,1.7-8.2-1.1-9.2,0.4c-0.1,0.1-0.2,0.3-0.2,0.3
		c0.6,0.9,3,4.8,2.9,8.3l0.1,0.1c0,0,0.4-0.3,0.7-0.7c0.7-0.9,0.6-3,0.2-4.6c4.5,2.9,9.6,4.4,15,4.4C42.7,55.9,55,43.5,55,28.4
		C55,22.7,53.3,17.2,50,12.5z"/>
	<path fill="#BADC00" d="M27.5,2.9c4.7,0,9.1,1.3,13.1,3.6c-1.4,0.3-2.9,0.9-3.5,1.7c-0.3,0.5-0.4,0.9-0.4,0.9l0.1,0.1
		c4.3-1.9,8.2,0.7,9.2-0.8c0.1-0.1,0.1-0.3,0.1-0.3c-0.6-0.9-3.2-4.7-3.2-8.1L42.8,0c0,0-0.4,0.3-0.7,0.7C41.5,1.6,41.6,3.5,42,5
		c-4.4-2.7-9.4-4.2-14.5-4.2C12.3,0.9,0,13.2,0,28.4c0,5.7,1.7,11.2,5,15.9L6.7,43c-3.1-4.3-4.7-9.4-4.7-14.7
		C2.1,14.3,13.5,2.9,27.5,2.9z"/>
	<path fill="#BADC00" d="M32,30.5c4.5,0,8.1-3.6,8.1-8.1c0-4.5-3.6-8.1-8.1-8.1c-4.5,0-8.1,3.6-8.1,8.1C23.9,26.9,27.5,30.5,32,30.5
		z M32,16c3.6,0,6.5,2.9,6.5,6.5c0,3.6-2.9,6.5-6.5,6.5c-3.6,0-6.5-2.9-6.5-6.5C25.5,18.8,28.4,16,32,16z"/>
	<path fill="#BADC00" d="M43.2,41.6v-5.3L42.9,36c-6-6-15.9-6-21.9,0l-0.3,0.3v5.3h1.7V37c5.3-5.1,13.9-5.1,19.2,0v4.6H43.2z"/>
	<path fill="#BADC00" d="M20.6,19.1c0.7,0,1.4,0.1,2,0.4l0.7-1.5c-0.8-0.4-1.7-0.6-2.7-0.6c-3.5,0-6.4,2.9-6.4,6.4
		c0,3.5,2.9,6.4,6.4,6.4c1.5,0,2.9-0.5,4.1-1.5l-1.1-1.3c-0.8,0.7-1.9,1.1-3,1.1c-2.6,0-4.7-2.1-4.7-4.7
		C15.8,21.2,18,19.1,20.6,19.1z"/>
	<path fill="#BADC00" d="M11.8,35.2v4.1h1.7v-3.4c2.2-2.1,5.1-3.1,8.1-2.8c0.3,0,0.7,0.1,1,0.1l0.3-1.6c-0.4-0.1-0.8-0.1-1.2-0.2
		c-3.6-0.3-7.1,0.9-9.6,3.4L11.8,35.2z"/>
</g>
</svg>
