<!-- Generator: Adobe Illustrator 19.1.0, SVG Export Plug-In  -->
<svg version="1.1"
	 xmlns="http://www.w3.org/2000/svg" xmlns:xlink="http://www.w3.org/1999/xlink" xmlns:a="http://ns.adobe.com/AdobeSVGViewerExtensions/3.0/"
	 x="0px" y="0px" width="123.1px" height="71.1px" viewBox="0 0 123.1 71.1" enable-background="new 0 0 123.1 71.1"
	 xml:space="preserve">
<defs>
</defs>
<g>
	<g>
		<path fill="#FFFFFA" d="M48.9,71.1c-4.1-8.4-4.8-16.6-2.1-24.6c5.8-16.7,24.8-26,25.6-26.4l2,4.2c-0.2,0.1-18.1,8.8-23.2,23.7
			c-2.3,6.7-1.7,13.8,1.9,20.9L48.9,71.1z"/>
	</g>
	<g>
		<path fill="#FFFFFA" d="M45.7,51.5c0-0.2-2.4-16.7-16.8-22.9l1.8-4.3c16.9,7.3,19.5,25.8,19.6,26.6L45.7,51.5z"/>
	</g>
	<g>
		<path fill="#FFFFFA" d="M73.6,44.5c-8,0-15.7-4.5-19.4-12.2C49.1,21.6,53.7,8.8,64.3,3.7c10.9-5.2,36.2-6.2,55.1,5.4l3.6,2.2
			l-3.8,1.9c-8.2,4-15.5,11.1-21.8,17.3c-5.4,5.3-10.1,9.8-14.7,12C79.8,43.9,76.7,44.5,73.6,44.5z M85.1,4.7
			c-8.2,0-15.2,1.5-18.8,3.2c-8.4,4-11.9,14-8,22.4c4,8.4,14,11.9,22.4,8c3.9-1.8,8.5-6.4,13.4-11.1c5.7-5.5,12-11.7,19.2-16
			C104.1,6.4,93.9,4.7,85.1,4.7z"/>
	</g>
	<g>
		<path fill="#FFFFFA" d="M32.9,44c-3.2,0-6.3-1-9.1-3c-2.8-2.1-5.4-5.8-8.3-10c-3.4-4.9-7.2-10.4-12.1-14L0,14.4l4-1.5
			c14.2-5.2,31.1-1.2,37.8,3.8c6.8,5,8.2,14.5,3.3,21.2C42.1,41.8,37.5,44,32.9,44z M9.5,16.1c3.8,3.7,6.9,8.2,9.8,12.2
			c2.6,3.7,5.1,7.2,7.3,8.9c4.7,3.5,11.3,2.5,14.7-2.1c3.4-4.6,2.4-11.2-2.3-14.7C34.8,17.3,22,13.2,9.5,16.1z"/>
	</g>
</g>
</svg>
